<svg width="500" height="500" viewBox="0 0 500 500" fill="none" xmlns="http://www.w3.org/2000/svg">
    <path
        d="M424.12 342.506C424.12 327.338 437.181 315.12 453.613 315.12C470.887 315.12 484.37 327.338 484.37 342.506C484.37 357.674 470.887 369.471 453.613 369.471C437.181 369.471 424.12 357.674 424.12 342.506Z"
        fill="#D64933" />
    <path
        d="M69.1326 368.207H27V132.264H60.7061L66.1834 161.757C89.3563 144.482 113.372 131 137.809 131C171.936 131 198.058 143.64 212.384 168.919C238.084 148.274 265.049 131 292.857 131C345.523 131 379.229 160.493 379.229 220.743V368.207H337.096V218.215C337.096 193.356 325.299 171.026 295.806 171.026C268.841 171.026 247.775 183.244 222.917 202.625C223.759 208.524 224.181 214.423 224.181 220.743V368.207H182.048V218.215C182.048 193.356 170.251 171.026 140.758 171.026C114.215 171.026 93.1482 182.823 69.1326 201.783V368.207Z"
        fill="#D64933" />
</svg>